<svg width="831" height="151" viewBox="0 0 831 151" fill="none" xmlns="http://www.w3.org/2000/svg">
<path d="M63.6818 57.9545C63.8333 54.1667 62.7273 51.2424 60.3636 49.1818C58.0303 47.1212 54.5 46.0909 49.7727 46.0909C46.5606 46.0909 43.7727 46.5455 41.4091 47.4545C39.0455 48.3333 37.1515 49.5606 35.7273 51.1364C34.3333 52.6818 33.4697 54.4697 33.1364 56.5C32.803 58.1667 32.9091 59.6212 33.4545 60.8636C34.0303 62.1061 34.9242 63.1818 36.1364 64.0909C37.3788 64.9697 38.8485 65.7424 40.5455 66.4091C42.2424 67.0455 44.0455 67.5909 45.9545 68.0455L53.9545 70.0455C57.8636 70.9545 61.3788 72.1667 64.5 73.6818C67.6515 75.197 70.2879 77.0606 72.4091 79.2727C74.5606 81.4848 76.0758 84.0909 76.9545 87.0909C77.8333 90.0909 77.9545 93.5303 77.3182 97.4091C76.3485 103.106 74.0909 108.045 70.5455 112.227C67 116.379 62.3485 119.606 56.5909 121.909C50.8333 124.182 44.1667 125.318 36.5909 125.318C29.0758 125.318 22.7273 124.167 17.5455 121.864C12.3636 119.561 8.59091 116.152 6.22727 111.636C3.89394 107.091 3.19697 101.47 4.13636 94.7727H23.1818C22.8485 97.8939 23.303 100.5 24.5455 102.591C25.8182 104.652 27.7121 106.212 30.2273 107.273C32.7424 108.303 35.697 108.818 39.0909 108.818C42.4545 108.818 45.4394 108.333 48.0455 107.364C50.6818 106.394 52.8182 105.045 54.4545 103.318C56.0909 101.591 57.0909 99.6061 57.4545 97.3636C57.8182 95.2727 57.5 93.5152 56.5 92.0909C55.5 90.6667 53.8939 89.4545 51.6818 88.4545C49.5 87.4242 46.7879 86.5151 43.5455 85.7273L33.8182 83.1818C26.303 81.2727 20.6212 78.2879 16.7727 74.2273C12.9242 70.1667 11.5455 64.697 12.6364 57.8182C13.6061 52.1818 15.9545 47.2576 19.6818 43.0455C23.4394 38.803 28.1667 35.5151 33.8636 33.1818C39.5909 30.8182 45.8485 29.6364 52.6364 29.6364C59.5455 29.6364 65.3788 30.8333 70.1364 33.2273C74.8939 35.5909 78.3636 38.8939 80.5455 43.1364C82.7273 47.3788 83.3939 52.3182 82.5455 57.9545H63.6818ZM135.511 94.2727L142.193 54.1818H161.557L149.92 124H131.33L133.42 111.318H132.693C130.542 115.409 127.405 118.697 123.284 121.182C119.163 123.667 114.481 124.909 109.239 124.909C104.572 124.909 100.633 123.848 97.4205 121.727C94.2386 119.606 91.9811 116.591 90.6477 112.682C89.3144 108.773 89.0871 104.091 89.9659 98.6364L97.4205 54.1818H116.784L109.966 95.1818C109.33 99.303 109.905 102.561 111.693 104.955C113.481 107.348 116.208 108.545 119.875 108.545C122.208 108.545 124.466 108.015 126.648 106.955C128.86 105.864 130.769 104.258 132.375 102.136C133.981 100.015 135.027 97.3939 135.511 94.2727ZM161.182 150.182L177.273 54.1818H196.364L194.409 65.9091H195.273C196.424 64.0303 197.955 62.1212 199.864 60.1818C201.803 58.2121 204.212 56.5758 207.091 55.2727C209.97 53.9394 213.348 53.2727 217.227 53.2727C222.348 53.2727 226.818 54.6061 230.636 57.2727C234.455 59.9091 237.212 63.8939 238.909 69.2273C240.636 74.5303 240.833 81.1818 239.5 89.1818C238.227 96.9697 235.879 103.545 232.455 108.909C229.061 114.242 224.985 118.288 220.227 121.045C215.5 123.773 210.485 125.136 205.182 125.136C201.424 125.136 198.333 124.515 195.909 123.273C193.515 122.03 191.652 120.47 190.318 118.591C188.985 116.682 188.045 114.758 187.5 112.818H186.773L180.591 150.182H161.182ZM190.409 89.0909C189.742 93.2424 189.712 96.8636 190.318 99.9545C190.955 103.045 192.227 105.455 194.136 107.182C196.045 108.879 198.561 109.727 201.682 109.727C204.833 109.727 207.636 108.864 210.091 107.136C212.545 105.379 214.591 102.955 216.227 99.8636C217.864 96.7424 219.03 93.1515 219.727 89.0909C220.364 85.0606 220.379 81.5151 219.773 78.4545C219.167 75.3939 217.924 73 216.045 71.2727C214.167 69.5455 211.621 68.6818 208.409 68.6818C205.288 68.6818 202.485 69.5151 200 71.1818C197.545 72.8485 195.5 75.2121 193.864 78.2727C192.227 81.3333 191.076 84.9394 190.409 89.0909ZM278.17 125.364C271.019 125.364 265.095 123.909 260.398 121C255.701 118.061 252.398 113.909 250.489 108.545C248.61 103.152 248.292 96.7727 249.534 89.4091C250.746 82.2273 253.186 75.9242 256.852 70.5C260.549 65.0758 265.186 60.8485 270.761 57.8182C276.337 54.7879 282.549 53.2727 289.398 53.2727C294.004 53.2727 298.17 54.0152 301.898 55.5C305.655 56.9545 308.777 59.1667 311.261 62.1364C313.746 65.0758 315.443 68.7576 316.352 73.1818C317.292 77.6061 317.277 82.7879 316.307 88.7273L315.443 94.0455H256.534L258.398 82.0455H299.125C299.58 79.2576 299.398 76.7879 298.58 74.6364C297.761 72.4848 296.398 70.803 294.489 69.5909C292.58 68.3485 290.231 67.7273 287.443 67.7273C284.595 67.7273 281.928 68.4242 279.443 69.8182C276.958 71.2121 274.867 73.0455 273.17 75.3182C271.504 77.5606 270.428 80 269.943 82.6364L267.807 94.5455C267.201 98.2121 267.322 101.258 268.17 103.682C269.049 106.106 270.564 107.924 272.716 109.136C274.867 110.318 277.595 110.909 280.898 110.909C283.049 110.909 285.064 110.606 286.943 110C288.852 109.394 290.549 108.5 292.034 107.318C293.519 106.106 294.731 104.606 295.67 102.818L313.352 104C311.716 108.303 309.231 112.061 305.898 115.273C302.564 118.455 298.549 120.939 293.852 122.727C289.186 124.485 283.958 125.364 278.17 125.364ZM323.159 124L334.795 54.1818H353.568L351.523 66.3636H352.25C354.25 62.0303 356.932 58.7576 360.295 56.5455C363.689 54.303 367.341 53.1818 371.25 53.1818C372.22 53.1818 373.235 53.2424 374.295 53.3636C375.386 53.4545 376.356 53.6061 377.205 53.8182L374.295 71.0455C373.447 70.7424 372.235 70.5 370.659 70.3182C369.114 70.1061 367.644 70 366.25 70C363.432 70 360.811 70.6212 358.386 71.8636C355.962 73.0758 353.917 74.7727 352.25 76.9545C350.614 79.1364 349.538 81.6515 349.023 84.5L342.523 124H323.159Z" fill="white"/>
<path d="M391.352 30.9091H415.625L430.943 93.4545H432.034L467.989 30.9091H492.261L476.807 124H457.716L467.807 63.4091H466.989L432.989 123.545H419.943L405.943 63.1818H405.17L394.989 124H375.898L391.352 30.9091ZM512.386 125.318C507.962 125.318 504.129 124.545 500.886 123C497.674 121.424 495.311 119.091 493.795 116C492.28 112.909 491.902 109.076 492.659 104.5C493.326 100.621 494.583 97.3788 496.432 94.7727C498.311 92.1364 500.598 90.0151 503.295 88.4091C505.992 86.803 508.977 85.5758 512.25 84.7273C515.553 83.8788 518.962 83.303 522.477 83C526.538 82.5758 529.841 82.1667 532.386 81.7727C534.962 81.3788 536.886 80.8182 538.159 80.0909C539.432 79.3333 540.205 78.2121 540.477 76.7273V76.4545C540.932 73.6061 540.402 71.3939 538.886 69.8182C537.402 68.2121 535.023 67.4091 531.75 67.4091C528.295 67.4091 525.356 68.1667 522.932 69.6818C520.538 71.197 518.826 73.1212 517.795 75.4545L500.159 74C501.735 69.7576 504.114 66.0909 507.295 63C510.508 59.8788 514.371 57.4848 518.886 55.8182C523.402 54.1212 528.462 53.2727 534.068 53.2727C537.947 53.2727 541.568 53.7273 544.932 54.6364C548.326 55.5455 551.25 56.9545 553.705 58.8636C556.189 60.7727 557.977 63.2273 559.068 66.2273C560.189 69.197 560.417 72.7576 559.75 76.9091L551.886 124H533.523L535.159 114.318H534.614C533.129 116.5 531.311 118.424 529.159 120.091C527.008 121.727 524.538 123.015 521.75 123.955C518.962 124.864 515.841 125.318 512.386 125.318ZM520.159 111.955C522.977 111.955 525.568 111.394 527.932 110.273C530.326 109.121 532.295 107.576 533.841 105.636C535.417 103.697 536.417 101.5 536.841 99.0455L538.023 91.6364C537.417 92.0303 536.538 92.3788 535.386 92.6818C534.265 92.9848 533.038 93.2727 531.705 93.5455C530.402 93.7879 529.083 94.0152 527.75 94.2273C526.417 94.4091 525.22 94.5909 524.159 94.7727C521.826 95.1061 519.735 95.6364 517.886 96.3636C516.038 97.0909 514.538 98.0758 513.386 99.3182C512.235 100.53 511.523 102.045 511.25 103.864C510.826 106.5 511.447 108.515 513.114 109.909C514.811 111.273 517.159 111.955 520.159 111.955ZM566.909 124L578.545 54.1818H597.318L595.273 66.3636H596C598 62.0303 600.682 58.7576 604.045 56.5455C607.439 54.303 611.091 53.1818 615 53.1818C615.97 53.1818 616.985 53.2424 618.045 53.3636C619.136 53.4545 620.106 53.6061 620.955 53.8182L618.045 71.0455C617.197 70.7424 615.985 70.5 614.409 70.3182C612.864 70.1061 611.394 70 610 70C607.182 70 604.561 70.6212 602.136 71.8636C599.712 73.0758 597.667 74.7727 596 76.9545C594.364 79.1364 593.288 81.6515 592.773 84.5L586.273 124H566.909ZM640.148 103.909L644.011 80.6818H646.83L673.693 54.1818H695.92L660.102 89.2727H655.466L640.148 103.909ZM619.284 124L634.739 30.9091H654.102L638.648 124H619.284ZM662.92 124L647.466 93.5909L662.602 79.9091L685.602 124H662.92ZM722.545 125.364C715.394 125.364 709.47 123.909 704.773 121C700.076 118.061 696.773 113.909 694.864 108.545C692.985 103.152 692.667 96.7727 693.909 89.4091C695.121 82.2273 697.561 75.9242 701.227 70.5C704.924 65.0758 709.561 60.8485 715.136 57.8182C720.712 54.7879 726.924 53.2727 733.773 53.2727C738.379 53.2727 742.545 54.0152 746.273 55.5C750.03 56.9545 753.152 59.1667 755.636 62.1364C758.121 65.0758 759.818 68.7576 760.727 73.1818C761.667 77.6061 761.652 82.7879 760.682 88.7273L759.818 94.0455H700.909L702.773 82.0455H743.5C743.955 79.2576 743.773 76.7879 742.955 74.6364C742.136 72.4848 740.773 70.803 738.864 69.5909C736.955 68.3485 734.606 67.7273 731.818 67.7273C728.97 67.7273 726.303 68.4242 723.818 69.8182C721.333 71.2121 719.242 73.0455 717.545 75.3182C715.879 77.5606 714.803 80 714.318 82.6364L712.182 94.5455C711.576 98.2121 711.697 101.258 712.545 103.682C713.424 106.106 714.939 107.924 717.091 109.136C719.242 110.318 721.97 110.909 725.273 110.909C727.424 110.909 729.439 110.606 731.318 110C733.227 109.394 734.924 108.5 736.409 107.318C737.894 106.106 739.106 104.606 740.045 102.818L757.727 104C756.091 108.303 753.606 112.061 750.273 115.273C746.939 118.455 742.924 120.939 738.227 122.727C733.561 124.485 728.333 125.364 722.545 125.364ZM816.307 54.1818L813.898 68.7273H771.807L774.261 54.1818H816.307ZM786.534 37.4545H805.898L795.08 102.545C794.777 104.333 794.822 105.727 795.216 106.727C795.61 107.697 796.261 108.379 797.17 108.773C798.11 109.167 799.231 109.364 800.534 109.364C801.443 109.364 802.367 109.288 803.307 109.136C804.246 108.955 804.958 108.818 805.443 108.727L806.17 123.136C805.08 123.47 803.61 123.833 801.761 124.227C799.943 124.621 797.792 124.864 795.307 124.955C790.58 125.136 786.58 124.515 783.307 123.091C780.034 121.636 777.686 119.409 776.261 116.409C774.837 113.409 774.534 109.636 775.352 105.091L786.534 37.4545Z" fill="#1EAD24"/>
</svg>
